# xmcd
#
# Track frame offsets:
#	182
#	17432
#	33752
#	50020
#	66250
#	84475
#	103675
#	121140
#	132820
#	145610
#	161077
#	177635
#	190760
#	211012
#	225257
#	242362
#	257012
#	277975
#	294962
#	309742
#
# Disc length: 4335 seconds
#
# Revision: 1
# Processed by: cddbd v1.5.1PL0 Copyright (c) Steve Scherf et al.
# Submitted via: audiograbber 1.83.01
#
DISCID=0710ed14
DTITLE=Various Artist - Dutch Gold
DYEAR=2005
DGENRE=Country
TTITLE0=W. Theunissen - Smile
TTITLE1=T. Tol - La France
TTITLE2=T. Tol - Breaking My Heart
TTITLE3=T. Tol - Chansons D'Amour
TTITLE4=H. Bouwens - Santa Lucia By Night
TTITLE5=H. Bouwens - All My Love
TTITLE6=H. Bouwens - Nino Del Sol
TTITLE7=M. Beekman - Mother How Are You Today
TTITLE8=A. May - Late At Night
TTITLE9=A. May - Rio
TTITLE10=W. Theunissen - My Broken Souvenirs
TTITLE11=T. Tol - Lend Me Your Shoulder
TTITLE12=Beltman - The Old Calahan
TTITLE13=H. Bouwens - Paloma Blanca
TTITLE14=H. Bouwens - Sing For The Day
TTITLE15=H. Bouwens - Canta Libre
TTITLE16=W. Theunissen - Missisippi
TTITLE17=T. Tol - Felicidad
TTITLE18=C. Coret - Lady
TTITLE19=P. Koopman - Give Me Back My Love
EXTD=Country Music from THE NETHERLANDS
EXTT0=
EXTT1=
EXTT2=
EXTT3=
EXTT4=
EXTT5=
EXTT6=
EXTT7=
EXTT8=
EXTT9=
EXTT10=
EXTT11=
EXTT12=
EXTT13=
EXTT14=
EXTT15=
EXTT16=
EXTT17=
EXTT18=
EXTT19=
PLAYORDER=
